<?xml version="1.0" encoding="UTF-8" standalone="no"?>
<!-- Created with Inkscape (http://www.inkscape.org/) -->

<svg
   xmlns:dc="http://purl.org/dc/elements/1.1/"
   xmlns:cc="http://creativecommons.org/ns#"
   xmlns:rdf="http://www.w3.org/1999/02/22-rdf-syntax-ns#"
   xmlns:svg="http://www.w3.org/2000/svg"
   xmlns="http://www.w3.org/2000/svg"
   xmlns:sodipodi="http://sodipodi.sourceforge.net/DTD/sodipodi-0.dtd"
   xmlns:inkscape="http://www.inkscape.org/namespaces/inkscape"
   width="150"
   height="100"
   viewBox="0 0 39.687499 26.458334"
   version="1.1"
   id="svg1035"
   inkscape:version="0.92.3 (2405546, 2018-03-11)"
   sodipodi:docname="Miss.svg"
   inkscape:export-filename="C:\projects\IkkiuchiV2\Assets\Sprites\Miss.png"
   inkscape:export-xdpi="96"
   inkscape:export-ydpi="96">
  <defs
     id="defs1029" />
  <sodipodi:namedview
     id="base"
     pagecolor="#ffffff"
     bordercolor="#666666"
     borderopacity="1.0"
     inkscape:pageopacity="0.0"
     inkscape:pageshadow="2"
     inkscape:zoom="1.979899"
     inkscape:cx="-165.43522"
     inkscape:cy="152.02846"
     inkscape:document-units="mm"
     inkscape:current-layer="layer1"
     showgrid="false"
     units="px"
     inkscape:snap-bbox="true"
     inkscape:snap-bbox-midpoints="true"
     inkscape:snap-object-midpoints="true"
     inkscape:window-width="1920"
     inkscape:window-height="1017"
     inkscape:window-x="-8"
     inkscape:window-y="-8"
     inkscape:window-maximized="1" />
  <metadata
     id="metadata1032">
    <rdf:RDF>
      <cc:Work
         rdf:about="">
        <dc:format>image/svg+xml</dc:format>
        <dc:type
           rdf:resource="http://purl.org/dc/dcmitype/StillImage" />
        <dc:title></dc:title>
      </cc:Work>
    </rdf:RDF>
  </metadata>
  <g
     inkscape:label="レイヤー 1"
     inkscape:groupmode="layer"
     id="layer1"
     transform="translate(0,-270.54165)">
    <g
       aria-label="miss"
       style="font-style:normal;font-weight:normal;font-size:10.58333302px;line-height:1.25;font-family:sans-serif;letter-spacing:0px;word-spacing:0px;fill:#ff0000;fill-opacity:1;stroke:#590000;stroke-width:0.5;stroke-miterlimit:4;stroke-dasharray:none;stroke-opacity:1"
       id="text1582">
      <path
         d="m 9.9124832,280.14383 q -0.289388,-0.46302 -0.790994,-0.19292 -0.4051432,0.30868 -0.578776,0.71382 -0.2315104,0.44373 -0.3858507,0.88746 -0.057878,-0.0772 -0.1157552,-0.15434 -0.096463,-0.13505 -0.2315105,-0.25081 -0.1736328,-0.0772 -0.3472656,-0.0772 -0.4630208,0.44373 -0.829579,0.88746 h -0.038585 q 0.019293,-0.17363 0.038585,-0.40514 0,-0.21222 -0.096463,-0.40515 -0.2122179,-0.55948 -0.7717014,-0.90674 -0.1543403,-0.15434 -0.3858507,-0.19293 -0.2700955,0.13505 -0.4630208,0.30868 -0.6752388,0.65595 -1.080382,1.42765 -0.3279731,0.59807 -0.7138238,1.17684 -0.1543403,0.2701 -0.2315104,0.57878 0,0.13505 -0.057878,0.27009 0,0.17364 -0.038585,0.32798 0,0.15434 0.1350477,0.2508 0.096463,0.0386 0.1929254,-0.0579 0.4051432,-0.30868 0.5594835,-0.79099 0.1736328,-0.44373 0.5016059,-0.84887 0.07717,-0.11576 0.1736328,-0.19293 0.057878,-0.0772 0.1350478,-0.13505 0.057878,-0.0965 0.1736328,-0.21221 0.038585,-0.0386 0.096463,-0.13505 0.096463,-0.15434 0.3279731,-0.2508 0.019293,-0.0772 0.096463,-0.0579 -0.038585,0.65594 -0.1543402,1.33118 -0.057878,0.0386 0,0.0579 -0.019293,0.17363 -0.096463,0.32797 -0.038585,0.0965 -0.096463,0.19293 -0.057878,0.21222 -0.1157552,0.42444 v -0.0579 q -0.096463,0.34726 -0.1929254,0.69453 0,0 0,-0.0193 0,0.0193 0,0.0193 0,0.0193 0,0.0579 -0.096463,0.36655 -0.1929253,0.73311 -0.038585,-0.0386 -0.019292,-0.0772 0,0.0386 -0.019293,0.0386 v -0.0965 q 0,0.0193 -0.019293,0.0193 0,0.11575 -0.057878,0.21222 -0.038585,0.0772 -0.038585,0.15434 -0.5594835,1.89066 -1.080382,3.74275 0,0.0193 -0.019292,0.0386 -0.038585,0.0772 -0.038585,0.13505 v -0.0193 0.0193 q -0.1157552,0.63665 -0.4051432,1.23472 -0.2700955,0.55949 -0.4630209,1.15755 0.1350478,-0.28938 0.2893881,-0.57877 -0.019293,-0.0193 0.019293,-0.0386 v -0.0193 q 0,-0.0193 0.019292,-0.0193 0,-0.0579 0.07717,-0.0965 0,-0.0386 0.019292,-0.0965 -0.019292,0.0386 0.019293,0.0386 v -0.0386 q -0.019293,-0.0386 0.019293,-0.0965 -0.019293,0.0386 0.019293,0.0386 -0.038585,0 -0.019293,-0.0386 0.096463,-0.23151 0.2700955,-0.46302 0.1350477,-0.28939 0.3086806,-0.54019 h 0.019293 q 0,-0.0579 0.057878,-0.11576 0.019293,0.0386 0.019293,0.0579 -0.3279731,0.65595 -0.6366536,1.33119 0.3665581,-0.61737 0.6945312,-1.21543 h 0.019293 q -0.038585,0 -0.019293,-0.0386 0.019293,-0.0386 0.057878,-0.0579 -0.038585,0.0193 0,-0.0193 -0.019293,-0.0386 0.019293,-0.0772 0,-0.0772 0.07717,-0.11575 -0.019293,0 -0.019293,0 0,-0.0193 0.019293,-0.0193 -0.019293,-0.0193 0.019293,-0.0386 v -0.0193 q 0.057878,-0.0772 0.096463,-0.17364 0.019293,0 0.019293,0.0193 0,-0.0193 0.038585,-0.0579 0.019293,-0.0579 0.07717,-0.11576 0.019293,-0.0386 0.07717,-0.0772 -0.057878,0.13505 -0.1157552,0.23151 0.019293,-0.0386 0.057878,-0.0965 h 0.019292 q 0,-0.0193 0.038585,-0.0386 0,-0.0579 0.057878,-0.0965 v -0.0193 q 0,-0.13505 0.096463,-0.2508 0,-0.0193 0,-0.0386 v 0.0386 q 0.019292,-0.0386 0.038585,-0.0772 -0.019293,0.0193 -0.019293,0.0386 -0.019292,0.0193 -0.019292,0 0,-0.0579 0.07717,-0.0772 -0.038585,0 -0.038585,0.0193 0.057878,-0.0386 0.07717,-0.11575 -0.019292,0.0193 -0.019292,0.0193 0,-0.0579 0.038585,-0.11575 0.057878,-0.13505 0.1157553,-0.28939 v 0.0386 q -0.057878,0.15434 -0.07717,0.25081 0,0.0386 0,0.0386 v 0.0579 q -0.038585,0.0772 -0.07717,0.17363 -0.019293,0.0386 -0.019293,0.0579 -0.038585,0.11575 -0.096463,0.23151 h 0.019293 q -0.057878,0.0772 -0.07717,0.13505 -0.019293,0.0193 -0.038585,0.0386 h 0.019293 q -0.057878,0.15434 -0.1350477,0.30868 0.3858507,-0.67524 0.6559462,-1.42764 v 0.0772 0 q 0,-0.0965 0.057878,-0.17364 -0.019293,-0.0193 0.019292,-0.0772 v 0.0193 -0.0193 q 0.038585,-0.0965 0.096463,-0.17363 h 0.019292 q -0.1350477,0.36656 -0.2700955,0.73312 -0.019292,0.0772 0,0.11575 0.038585,-0.0965 0.07717,-0.19292 0.019292,-0.0965 0.096463,-0.17364 0,-0.0386 0.038585,-0.0772 0,-0.0386 0.019293,-0.0772 0,-0.0193 0.038585,-0.0386 H 4.607036 q 0,-0.0386 0.057878,-0.0386 -0.057878,0 -0.038585,-0.0193 0,-0.0386 0.038585,-0.0965 0.019292,0 0.019292,-0.0386 0,-0.0193 0,-0.0579 v 0 q 0,0 0,-0.0386 0.019293,0.0386 0.019293,0 h -0.019293 q 0,-0.0386 0.019293,-0.0579 -0.019293,0.0386 0.019292,0.0579 -0.019292,-0.0386 0.019293,-0.0965 -0.038585,0.0193 -0.019293,0.0193 0,-0.0386 0.057878,-0.11576 v 0.0386 q 0,-0.0193 0,-0.0386 -0.019292,0 0,0.0193 v -0.0193 q 0,-0.0772 0.057878,-0.19292 0.019292,0.0193 0.019292,0.0386 0,-0.0386 0.038585,-0.0386 h -0.019292 q 0.057878,-0.0193 0.096463,-0.0965 0.096463,-0.19293 0.1736328,-0.40515 0.038585,-0.27009 0.096463,-0.54019 0,-0.0772 0.07717,-0.15434 0.019292,0.0579 0.019292,0.0772 v -0.0193 q 0.019293,-0.0772 0.07717,-0.15434 0.038585,-0.2508 0.1929253,-0.50161 0,-0.11575 0.07717,-0.23151 -0.07717,0.0386 -0.07717,0.0965 0,-0.0965 0.07717,-0.21222 v -0.15434 q 0.019292,0 0.019292,-0.0193 0,-0.0193 0,-0.0579 0,-0.0386 0.019293,-0.0579 0,-0.0579 0.057878,-0.15434 v -0.0193 l -0.019292,0.0193 q -0.019292,-0.0193 0.019292,-0.0579 -0.019292,0.0386 0,0.0386 0,-0.0579 0.038585,-0.0965 -0.019293,0 -0.019293,-0.0193 -0.019293,-0.0193 0.019293,-0.0193 0.038585,-0.0965 0.07717,-0.17363 v -0.0772 -0.0193 q 0.1543402,-0.52089 0.3665581,-1.0225 0.038585,-0.17363 0.1736328,-0.30868 h -0.019292 q 0.096463,-0.0965 0.1543403,-0.2508 v 0.0193 q 0.019292,-0.0193 0.057878,-0.0579 0,-0.0193 0.019293,-0.0193 0.1350478,-0.23151 0.3086806,-0.40514 0,0.0772 0.057878,0.15434 0.07717,0.46302 -0.057878,0.90674 -0.4244358,1.65916 -1.0996745,3.26044 -0.057878,0.0386 -0.07717,0.0579 0,0.0386 0.019293,0.0386 -0.038585,0.0772 -0.07717,0.13504 0.057878,-0.0579 0.096463,-0.13504 v 0 q -0.019293,0.0579 -0.038585,0.0965 0.07717,-0.11576 0.1543403,-0.23151 h -0.038585 q 0,-0.0193 0.038585,-0.0579 -0.019292,0.0193 0.019293,0.0193 -0.096463,0.23151 -0.250803,0.40515 0,0.0386 0.019293,0.0579 -0.019293,0.0386 -0.019293,0.0772 -0.1350477,0.25081 -0.2700955,0.46302 v 0 q 0.1543403,-0.11575 0.2700955,-0.27009 -0.096463,0.11575 -0.1736328,0.2508 0,-0.0579 0.057878,-0.0965 0.019292,0.0193 0.019292,0.0193 -0.038585,0.0965 -0.07717,0.17363 0,-0.0193 0.038585,-0.0386 -0.250803,0.55948 -0.3858508,1.11897 -0.1350477,0.44373 0.096463,0.82958 0.07717,0.17363 0.2893881,0.23151 0.1736328,0 0.3665581,0.0193 0.019293,-0.0386 0.096463,-0.0193 0.1736328,-0.0386 0.250803,-0.19293 0.1350477,-0.19292 0.2315104,-0.38585 0.019292,0.0193 0.019292,0.0579 0.019293,-0.0579 0.07717,-0.0772 0.019292,-0.0579 0.038585,-0.0772 v -0.0386 q 0.038585,-0.0772 0.057878,-0.17363 0.019293,0 0.038585,0.0193 l -0.019293,0.0193 q 0.019293,-0.0386 0.057878,-0.0965 0.038585,-0.11575 0.07717,-0.2508 0.057878,-0.13505 0.096463,-0.32797 0,0.0386 0.019292,0.0386 0.019293,-0.0193 0.019293,-0.0579 h -0.019293 q 0.096463,-0.11575 0.1543403,-0.2508 0.057878,-0.17363 0.1350478,-0.32797 -0.057878,0.19292 -0.1350478,0.36656 -0.019292,0.0193 0,0.0193 -0.019292,0.0193 0.019292,0.0193 -0.019292,-0.0193 0.019293,-0.0579 v -0.0772 q 0.019293,0.0193 0.019293,0.0579 0,-0.0386 0.019293,-0.0772 0,-0.0193 0,-0.0193 v -0.0193 q -0.019293,-0.0193 0,-0.0193 0,-0.0193 0.019292,-0.0386 0.07717,-0.2701 0.1736328,-0.54019 0.038585,-0.0579 0.057878,-0.13505 h 0.019292 q -0.019292,0.0193 -0.019292,0 0,-0.0579 0.038585,-0.11576 h -0.019293 q -0.019292,-0.0579 0.038585,-0.11575 0.038585,0.0193 0.019293,0 0,-0.0386 0.019293,-0.0772 h -0.019293 q 0,-0.0965 0.096463,-0.15434 H 7.597379 q -0.019293,-0.0965 0.057878,-0.15434 v -0.0579 0 q 0,-0.0386 0.038585,-0.0772 0,-0.0579 0.019293,-0.0772 -0.019293,0 -0.019293,-0.0193 0.019293,-0.0772 0.057878,-0.17364 -0.038585,-0.0579 0.038585,-0.0965 -0.038585,0 -0.038585,-0.0193 h 0.038585 v -0.0193 q -0.038585,-0.0193 0,-0.0772 h 0.019292 q -0.038585,0 -0.019292,-0.0579 0.038585,-0.0386 0.07717,-0.0772 -0.057878,0.0193 -0.038585,-0.0193 0.019292,-0.0386 0.057878,-0.0965 v -0.0772 q 0,0.0579 -0.019293,0.0772 0,-0.0965 0.057878,-0.21221 -0.019293,0.0386 -0.038585,0 0.038585,-0.0386 0.07717,-0.0965 v -0.0579 -0.0193 -0.0386 0 q 0.019293,-0.0579 0.019293,-0.0772 0.019292,-0.11576 0.07717,-0.21222 0.019292,-0.0772 0.019292,-0.21222 0,-0.0579 0.038585,-0.15434 0.019293,-0.17363 0.057878,-0.38585 0,-0.11575 0.038585,-0.23151 0.038585,-0.17363 0.038585,-0.40514 0.038585,-0.0772 0.019292,-0.15434 -0.019292,-0.0193 0.038585,-0.0579 0,-0.0579 0,-0.13505 v 0 q -0.038585,0.0386 -0.019293,0.0579 -0.038585,-0.0579 0,-0.0965 0.057878,-0.55949 0.2700955,-1.09968 0.038585,-0.0579 0.057878,-0.15434 h 0.019293 q 0.019293,-0.0772 0.096463,-0.21222 0.1157552,-0.42443 0.4630209,-0.79099 0.038585,0.0386 0.057878,0.0965 -0.019293,0.54019 -0.1350478,1.0418 -0.2508029,1.06109 -0.4437283,2.10289 -0.2122179,0.7717 -0.3665581,1.5434 -0.3472657,1.19614 -0.2315105,2.39227 0.1157552,0.75241 0.4630209,1.40836 0.1157552,0.28939 0.4051432,0.5016 0,0.0386 0.057878,0.0579 0.2893881,0.23151 0.7138238,0.15434 0.019293,-0.0386 0.057878,-0.13505 0.038585,-0.0193 0.07717,-0.0772 0.038585,-0.17363 0.1543404,-0.30868 0.09646,-0.15434 0.23151,-0.34726 0.03858,-0.0772 0.115755,-0.15434 v 0.0193 q 0,-0.0386 0.05788,-0.0772 -0.01929,-0.0193 0,-0.0193 v -0.0386 q -0.01929,0.0386 -0.05788,0.0386 0.135048,-0.23151 0.250803,-0.46302 0.01929,-0.0193 0.05788,-0.0579 -0.01929,-0.0193 0,-0.0579 0,-0.0772 0.07717,-0.11575 -0.01929,-0.0772 0.03858,-0.17364 0.01929,-0.0772 0.09646,-0.17363 v 0.0193 q 0,-0.0965 0.07717,-0.19292 0.03858,-0.17364 0.135048,-0.34727 0,-0.0193 0.01929,-0.0579 0.01929,-0.0772 0.07717,-0.15434 0.05788,-0.17363 0.09646,-0.36655 0,0.0193 0.01929,0.0386 v -0.0386 q 0,-0.0193 0.01929,-0.0579 v 0.0193 q 0,-0.0579 0.01929,-0.13505 -0.05788,0.11576 -0.09646,0.23151 0.01929,0 0.03859,0.0193 0,0.0386 -0.03859,0.0772 v -0.0579 0.0386 q -0.03858,0.0965 -0.09646,0.17364 0.05788,-0.15434 0.09646,-0.30868 0.05788,-0.0579 0.07717,-0.15434 0.01929,-0.0772 0.05788,-0.13505 -0.01929,0.0193 0.01929,0 v -0.0386 q 0.01929,-0.0772 0.05788,-0.15434 -0.01929,0.0386 -0.03858,0.0386 0,-0.0193 0,-0.0386 -0.01929,0.0193 0,0 0,-0.0193 0.01929,-0.0193 -0.01929,0 0,-0.0386 h 0.01929 v 0.0386 q 0.03859,-0.0965 0.09646,-0.23151 -0.05788,0 -0.03858,-0.0386 0,0.0386 -0.01929,0.0386 0,-0.0386 0.01929,-0.0772 0.03858,-0.0772 0.07717,-0.13505 v 0 q 0.05788,-0.0193 0.07717,-0.0965 -0.03858,0 -0.01929,-0.0193 -0.01929,-0.0193 0.01929,0 h -0.01929 q -0.01929,-0.0386 0.01929,-0.0965 v 0 0 -0.0193 0 h -0.01929 q 0,0 0.01929,-0.0386 v 0 0.0193 q 0.03859,0.0193 0.05788,-0.0193 h -0.01929 q 0,-0.0386 0.03858,-0.0579 v -0.0386 0 q -0.01929,-0.0193 0,-0.0772 v -0.0193 q 0.01929,-0.0386 0.05788,-0.11575 0.01929,0 0,-0.0386 -0.05788,0.11576 -0.05788,0.23151 -0.03858,-0.0386 -0.01929,-0.0579 -0.01929,0.0579 -0.05788,0.0965 h 0.03859 v 0.0193 h -0.01929 q 0.01929,0.0193 0.01929,0.0193 -0.01929,0.0386 -0.03859,0.0386 v -0.0386 q -0.03858,0.0772 -0.07717,0.0965 v -0.0193 0.0193 0.0386 q -0.173633,0.40514 -0.366558,0.79099 0,-0.0579 0.01929,-0.11575 0.05788,-0.0965 0.09646,-0.23151 -0.01929,-0.0386 0.01929,-0.0579 h 0.01929 0.01929 v -0.0386 q -0.01929,0.0386 -0.01929,0.0193 -0.01929,-0.0193 0.01929,-0.0386 v 0.0193 q 0,-0.0386 0.01929,-0.0772 -0.01929,0.0386 0,0.0386 0.01929,-0.0772 0.05788,-0.13505 v 0 q 0.01929,-0.0386 0.01929,-0.0965 v 0.0193 -0.0193 q 0.01929,-0.0386 0.03858,-0.0772 h 0.01929 v -0.0386 q 0.01929,0 0.01929,-0.0386 h 0.01929 v -0.0193 -0.0579 q 0,-0.0386 0.01929,-0.0772 -0.01929,-0.0386 0.05788,-0.0386 -0.03858,0 -0.01929,-0.0193 0.01929,-0.0772 0.07717,-0.19292 -0.05788,0.0772 -0.07717,0.15434 -0.01929,0.0579 -0.05788,0.0965 -0.03859,0.17363 -0.09646,0.28939 -0.07717,0.11575 -0.09646,0.17363 v -0.0386 q 0.09646,-0.17363 0.154341,-0.38585 0,0.0772 -0.05788,0.11576 v -0.0193 q 0.01929,-0.0772 0.07717,-0.13505 v 0.0386 q 0,-0.0193 0.01929,-0.0193 0,-0.0965 0.03858,-0.21222 -0.03858,0.0772 -0.05788,0.13505 0.01929,-0.0965 0.07717,-0.19292 -0.01929,0.0386 0.01929,0.0386 0,-0.0193 -0.01929,-0.0386 0.01929,-0.0579 0.05788,-0.13505 0,0.0386 -0.01929,0.0579 0.01929,-0.0193 0.05788,-0.0579 -0.03858,0 -0.03858,-0.0386 0.01929,0 0.03858,-0.0386 v 0.0386 0 q 0.01929,-0.0386 0.01929,-0.13504 0.01929,0 0.03859,-0.0193 -0.03859,0 -0.01929,-0.0193 0,-0.0193 0.01929,-0.0193 0.07717,-0.0965 0.09646,-0.23151 -0.09646,0.21221 -0.192925,0.40514 -0.01929,0 -0.01929,-0.0193 0.01929,-0.0193 0.05788,-0.0772 0.03858,-0.0772 0.05788,-0.15434 -0.07717,0.11575 -0.135048,0.23151 v 0 q 0.07717,-0.11576 0.09646,-0.23151 0.03859,-0.0579 0.07717,-0.15434 0.01929,-0.0386 0.05788,-0.0965 0.01929,-0.15434 0.115756,-0.28938 -0.308681,0.69453 -0.655947,1.36977 0,-0.0772 0.05788,-0.17364 0.07717,-0.0579 0.07717,-0.17363 0.01929,0 0.01929,-0.0193 0.01929,-0.0386 0.05788,-0.0965 0.03859,-0.0965 0.07717,-0.17364 h -0.01929 q -0.03858,0.0386 -0.01929,0 -0.01929,0.0386 -0.01929,0.0579 v 0.0193 q -0.03859,0.0772 -0.03859,0.15434 -0.05788,0.0386 -0.07717,0.0772 0.01929,-0.0386 0.01929,-0.0772 0.05788,-0.0965 0.07717,-0.19292 v 0 q -0.07717,0.13505 -0.09646,0.23151 h -0.01929 q -0.03858,0 -0.01929,0.0193 v -0.0193 0.0193 q -0.03858,0.0579 -0.05788,0.11576 v 0.0386 q -0.03859,0 -0.01929,-0.0193 -0.07717,0.17363 -0.173632,0.30868 0,0.0386 -0.01929,0 -0.405143,0.71382 -0.945334,1.35048 -0.2315107,0.30868 -0.5787763,0.55948 -0.07717,0.0579 -0.2122179,0.0965 -0.07717,-0.11575 -0.096463,-0.27009 -0.019293,-0.0965 0,-0.23151 0.019293,-0.11576 0.057878,-0.25081 0,-0.0772 0,-0.17363 0,0 0.019293,-0.0193 0.038585,-0.17363 0.07717,-0.34727 v -0.0386 -0.0579 0 q 0,-0.0772 0.057878,-0.17363 0.019293,-0.0965 0.038585,-0.25081 0.038585,-0.0386 0.057878,-0.11575 v -0.11576 q 0.019292,-0.0579 0.057878,-0.15434 v -0.0965 h 0.019293 q -0.019293,-0.0772 0.019293,-0.15434 v -0.11575 q 0,-0.0579 0.038585,-0.13505 0,-0.0386 0.019293,-0.0965 0.019293,-0.0965 0.019293,-0.21222 0,-0.0386 0.038585,-0.0386 0,0 0.019293,-0.0386 0.019293,-0.11576 0.07717,-0.25081 -0.019293,-0.0386 0.019293,-0.0579 0,-0.0965 0.038585,-0.19293 0,-0.11575 0.05788,-0.27009 0,-0.0772 0.05788,-0.17364 -0.01929,-0.0965 0.03858,-0.21222 0.07717,-0.15434 0.09646,-0.32797 0.01929,-0.0579 0.03859,-0.11575 -0.03859,0.0386 -0.05788,0.0772 -0.01929,-0.0772 0.05788,-0.17364 v 0.0965 h 0.01929 q 0.01929,-0.0579 0,-0.13505 -0.01929,0.0386 -0.01929,0.0772 0.07717,-0.23151 0.173633,-0.46302 0,-0.13505 0.01929,-0.2508 -0.01929,0 -0.01929,-0.0193 0.01929,-0.0386 0.01929,-0.0965 0,-0.0193 0.03859,-0.0579 v -0.0579 q -0.03859,0.0193 -0.03859,0.0579 -0.01929,-0.0386 0,-0.0965 0.01929,0.0193 0.01929,0.0386 0,-0.0579 0.03858,-0.0965 0.01929,0 0,-0.0386 -0.03858,0 -0.05788,0.0193 0.03859,-0.11576 0.05788,-0.23151 h -0.01929 q -0.03859,-0.0965 0,-0.17363 -0.01929,-0.13505 0.03858,-0.28939 -0.03858,-0.0386 -0.03858,-0.0772 0.01929,-0.40515 -0.173633,-0.791 -0.173632,-0.32797 -0.4437278,-0.61736 z m -5.3054472,7.56268 q 0,-0.0772 0.057878,-0.13505 -0.057878,0.0579 -0.096463,0.13505 -0.038585,0.11575 -0.057878,0.17363 -0.07717,0.2508 -0.1543403,0.46302 0.07717,-0.19292 0.1736328,-0.40514 0.038585,-0.0965 0.096463,-0.25081 -0.019292,0 -0.019292,0.0193 z"
         style="font-style:normal;font-variant:normal;font-weight:normal;font-stretch:normal;font-size:19.75555611px;font-family:KswGoryuNewN;-inkscape-font-specification:KswGoryuNewN;letter-spacing:-1.32291663px;stroke-width:0.5;fill:#ff0000;stroke-miterlimit:4;stroke-dasharray:none;stroke:#590000;stroke-opacity:1"
         id="path1588" />
      <path
         d="m 15.573464,275.5715 q -0.07717,0 -0.09646,-0.0579 v 0.0579 q -0.03858,0.0386 -0.03858,0 0,0.0579 -0.01929,0.0965 -0.05788,0.0193 -0.07717,-0.0386 0,0.0579 -0.01929,0.0579 -0.07717,0.0579 -0.05788,0.11575 -0.03858,0 -0.01929,-0.0579 -0.05788,0.0965 -0.115755,0.0386 -0.03858,0.0772 -0.07717,0.13505 -0.09646,0.0772 -0.115756,0.17363 h -0.05788 q -0.07717,0.0193 -0.05788,0.0772 -0.07717,0.15434 -0.115755,0.32797 -0.05788,0 -0.03858,-0.0579 -0.03858,0.0772 -0.09646,0.11575 -0.09646,0.38585 0,0.75241 0.09646,0.67524 -0.01929,1.35048 -0.03858,0 -0.01929,-0.0386 -0.01929,0.11576 -0.03859,0.21222 -0.03858,0.11576 -0.03858,0.23151 0.03858,-0.19292 0.115755,-0.40514 0.01929,-0.0386 0,-0.0965 0.01929,-0.0772 0.03858,-0.13505 -0.03858,0.28939 -0.115755,0.57877 0.07717,-0.23151 0.115755,-0.5016 -0.01929,0.27009 -0.05788,0.5016 -0.07717,0.21222 -0.07717,0.40515 -0.01929,-0.0193 0.01929,-0.0386 -0.05788,0.30868 -0.115755,0.61736 0,0.0386 0.01929,0.0579 h -0.01929 q -0.01929,0.13505 -0.01929,0.2508 -0.05788,-0.0193 -0.03858,-0.0965 -0.03859,0.17363 -0.01929,0.32797 -0.03859,0 -0.01929,-0.0193 0,0.0965 -0.05788,0.19293 -0.03859,-0.17364 0.01929,-0.34727 -0.05788,0.17363 -0.05788,0.34727 -0.03858,-0.0579 0,-0.17364 -0.03858,0.13505 -0.01929,0.2701 -0.05788,0.0579 -0.07717,0.0965 -0.07717,0.11576 -0.115755,0.21222 -0.05788,0.15434 -0.115756,0.2701 -0.03858,0.90674 -0.07717,1.77491 -0.03859,0.21222 -0.03859,0.42443 0,0.25081 -0.03858,0.48232 -0.01929,0.30868 -0.09646,0.59807 0,0.15434 -0.01929,0.30868 0,0.0193 0.01929,0.0193 -0.01929,0.0579 -0.01929,0.11575 -0.01929,0 -0.01929,-0.0193 v 0.0386 q 0,0.0193 0.01929,0.0193 0,0.0386 -0.01929,0.0386 0.01929,0.0965 0,0.17364 v 0.13505 0.15434 0.92604 0.0579 0.28939 q 0,0.63666 0.03858,1.23473 0.03858,0.0965 0.09646,0.17363 0.07717,0.23151 0.192925,0.44373 0.347266,0.46302 0.810287,0.82958 0.270095,0.28938 0.675239,0.44372 0.270095,0.11576 0.559483,0.17364 0.05788,0 0.115755,0.0193 0.135048,0.0193 0.308681,0.0193 0.30868,-0.0193 0.578776,-0.17363 0.308681,-0.0772 0.424436,-0.34727 0.15434,-0.27009 0.366558,-0.5209 v -0.0193 q 0.01929,-0.19292 0.15434,-0.40514 0.231511,-0.38585 0.540191,-0.75241 h 0.01929 q -0.01929,0.0386 -0.01929,0.0579 0.07717,-0.15434 0.173633,-0.28939 0.115755,-0.21222 0.270095,-0.44373 -0.01929,-0.0386 0.01929,-0.0772 -0.250803,0.42444 -0.559483,0.81029 v 0 q 0.01929,-0.0193 0.03859,-0.0579 h -0.03859 q 0,0.0579 -0.01929,0.0579 0.01929,-0.0965 0.115755,-0.21222 0.01929,-0.0772 0.09646,-0.13505 v -0.0386 q 0.01929,-0.0193 0.05788,-0.0772 -0.01929,0.0193 0.01929,0.0193 -0.03858,0 0,-0.0386 0.09646,-0.13504 0.173633,-0.28938 0.212218,-0.30868 0.385851,-0.63666 0.09646,-0.0579 0.115755,-0.17363 -0.03859,0.0579 -0.05788,0.11575 0.135048,-0.28938 0.347266,-0.57877 -0.01929,0 -0.01929,-0.0386 0.01929,-0.0193 0.05788,0 0.09646,-0.19292 0.212218,-0.40514 v 0.0386 q 0.01929,-0.0386 0.03859,-0.11576 0.03858,-0.0193 0.05788,-0.0579 0.01929,-0.0965 0.09646,-0.17363 0.03859,-0.0772 0.07717,-0.17363 0.05788,-0.0965 0.115755,-0.19293 0.01929,-0.11575 0.09646,-0.2508 0,-0.0965 0.09646,-0.21222 -0.01929,-0.0579 0.03858,-0.13505 -0.01929,-0.0386 0.01929,-0.0965 v -0.0579 q -0.03858,0.0193 0,0.0386 -0.405143,1.06109 -1.099674,2.02571 h -0.01929 q 0,0.0386 -0.01929,0.0386 -0.07717,0.11575 -0.135048,0.23151 -0.01929,0 -0.01929,-0.0193 0.09646,-0.17364 0.23151,-0.34727 0.405143,-0.61736 0.713824,-1.2926 -0.03858,0.11576 -0.09646,0.21222 0.01929,-0.0965 0.05788,-0.21222 0.03858,0 0.03858,-0.0579 v -0.0193 q 0.03859,0 0.03859,-0.0579 -0.01929,-0.0386 -0.01929,-0.0579 0,-0.0193 0.03859,0 h -0.01929 q 0.07717,-0.0386 0.07717,-0.13505 0.05788,-0.11576 0.09646,-0.2508 -0.03858,0.0193 -0.01929,0.0386 -0.01929,0 -0.01929,-0.0193 0,0 0.01929,-0.0193 0,-0.0386 0.01929,-0.0965 0,-0.0193 0.01929,-0.0579 0,0.0386 0.03859,0.0579 0.01929,-0.0579 0.01929,-0.17363 0.01929,0.0193 0.05788,0 -0.03858,-0.0193 -0.01929,-0.0579 -0.03858,0.0193 -0.03858,0 -0.01929,-0.0386 0.01929,-0.0579 0.01929,-0.0386 0.05788,-0.0965 v 0.0386 q -0.01929,-0.0579 0.01929,-0.11576 -0.01929,0.0386 0.01929,0.0193 -0.01929,-0.0193 0.01929,-0.0193 -0.05788,0 -0.03859,-0.0579 0.05788,-0.0965 0.115756,-0.21221 -0.07717,0.0386 -0.07717,0.11575 -0.135048,0.40515 -0.327974,0.7717 -0.07717,0.13505 -0.15434,0.2701 -0.01929,0.0193 0.01929,0.0193 -0.01929,0.0193 -0.03859,0.0386 -0.03859,0.0772 -0.09646,0.13504 0,-0.0965 0.05788,-0.19292 0.05788,0 0.07717,-0.0579 v -0.0193 -0.0386 q 0,0.0386 0,0.0386 v -0.0579 h 0.01929 v -0.0386 h 0.01929 q -0.03858,0.0193 -0.01929,-0.0193 0.03858,-0.0193 0.05788,-0.0772 0.01929,-0.0579 0.05788,-0.15434 0.05788,0 0.05788,-0.0579 0.05788,-0.11576 0.07717,-0.2701 0.03859,-0.0193 0.05788,-0.0579 -0.01929,-0.0772 0.05788,-0.17363 v 0.0193 q -0.15434,0.32798 -0.327973,0.63666 v -0.0579 q -0.38585,0.67524 -0.848871,1.31189 0.30868,-0.5209 0.655946,-1.06109 0.03859,-0.11575 0.09646,-0.23151 -0.212218,0.40514 -0.463021,0.75241 v -0.0193 q 0.115755,-0.21222 0.23151,-0.42444 0,-0.0193 0.01929,-0.0579 -0.03859,0.0579 -0.07717,0.0965 -0.01929,0.0193 0.01929,0 -0.01929,0.0386 -0.03859,0.0772 v -0.0386 -0.0193 0.0579 q -0.01929,0.0579 -0.05788,0.0772 0,-0.0386 0.03859,-0.0772 -0.03859,0.0772 -0.07717,0.11575 v -0.0386 q 0.173633,-0.2701 0.347266,-0.55949 -0.05788,0.0772 -0.07717,0.15434 v -0.0193 q 0.01929,-0.0193 0.07717,-0.0772 v -0.0579 q -0.01929,0.0386 0.01929,0.0386 -0.03859,-0.0386 0,-0.0965 -0.01929,0.0386 -0.01929,0.0579 v -0.0772 q 0.07717,-0.0579 0.09646,-0.15434 0,0.0386 0.03858,0.0193 v -0.0579 q -0.01929,0.0386 -0.03858,0.0386 0,-0.0579 0.05788,-0.0965 0,0.0386 0.01929,0.0386 h -0.01929 q 0,0 0.03859,-0.0386 0.01929,-0.0193 0,-0.0579 0.01929,0 0.03859,-0.0193 0.01929,-0.0386 0,-0.0965 0.01929,0 0.03859,-0.0386 h -0.01929 q -0.07717,0.0579 -0.07717,0.13505 -0.01929,-0.0193 -0.01929,-0.0386 v 0.0386 h 0.01929 v 0.0193 h -0.01929 q -0.05788,0.0965 -0.09646,0.21222 -0.03859,0 -0.01929,-0.0579 -0.173633,0.30868 -0.366558,0.57878 0.115755,-0.19293 0.212218,-0.40514 0.01929,0 0.03858,-0.0579 0.115755,-0.17364 0.192925,-0.38585 0.07717,-0.0386 0.09646,-0.13505 0.03858,-0.0772 0.09646,-0.17363 -0.07717,0.0772 -0.115756,0.15434 -0.09646,0.13504 -0.15434,0.2508 -0.01929,0.0772 -0.07717,0.11575 -0.05788,0.0579 -0.07717,0.11576 h -0.01929 q -0.03859,0.0579 -0.05788,0.11576 -0.05788,0.11575 -0.135048,0.19292 v 0.0193 q 0,0.0386 -0.01929,0.0193 -0.03859,0.0772 -0.07717,0.13504 v -0.0193 q -0.01929,0.0579 -0.01929,0.11576 -0.05788,0.0579 -0.115756,0.0772 0.135048,-0.2701 0.327974,-0.54019 -0.154341,0.23151 -0.270096,0.46302 -0.03858,0 -0.01929,-0.0386 0.07717,-0.0965 0.135047,-0.23151 0.05788,-0.0772 0.115756,-0.19292 -0.01929,0.0193 -0.01929,0.0386 v -0.0386 q -0.01929,0 0.01929,-0.0193 0.03859,-0.0386 0.09646,-0.0965 -0.01929,0 -0.01929,-0.0386 0,-0.0193 0.03859,-0.0579 v 0.0386 h -0.01929 q 0.01929,0.0386 0.01929,0 v -0.0579 q 0.07717,-0.0579 0.09646,-0.15434 -0.03858,0.0772 -0.07717,0.11576 0.01929,-0.0772 0.05788,-0.17363 0,0.0386 0.01929,0.0386 0.09646,-0.17363 0.154341,-0.32797 -0.250803,0.46302 -0.520899,0.90675 -0.01929,0 -0.03859,-0.0193 0,-0.0193 0.03859,-0.0386 v 0 q 0.03858,-0.13505 0.135048,-0.28939 0.09646,-0.0965 0.135048,-0.23151 -0.01929,0.0579 -0.03859,0.0772 v -0.0193 q 0.03859,-0.0579 0.05788,-0.15434 l -0.01929,0.0193 q 0.03859,-0.0386 0.07717,-0.11575 v 0.0193 -0.0193 q -0.07717,0.13504 -0.173633,0.27009 h 0.01929 q -0.01929,0.0579 -0.01929,0.0965 v -0.0386 -0.0193 -0.0386 0.0386 q -0.01929,-0.0579 0.01929,-0.0965 0,-0.0579 0.05788,-0.0965 h -0.01929 q 0,0.0386 -0.01929,0.0386 -0.01929,0.0386 -0.03859,0.0386 -0.07717,0.17363 -0.173633,0.28939 0,0.0386 0,0.0579 -0.09646,0.0386 -0.07717,0.11575 -0.115755,0.0579 -0.135048,0.11576 -0.05788,0.11575 -0.115755,0.23151 -0.05788,0 -0.07717,0.0193 0.270095,-0.42443 0.559484,-0.88746 v -0.0193 q -0.231511,0.30868 -0.405144,0.63666 h -0.01929 q 0.03859,-0.0965 0.09646,-0.21222 -0.540191,0.79099 -1.099674,1.58199 h -0.01929 q 0,-0.0386 0.03858,-0.0965 0.05788,-0.0579 0.07717,-0.13504 0.01929,-0.0386 0.07717,-0.0772 -0.03859,0.0193 -0.01929,-0.0193 v -0.0193 h 0.01929 v -0.0386 q -0.01929,0.0579 -0.05788,0.0386 v 0.0579 q 0,0.0579 -0.05788,0.0579 0,0.0579 -0.01929,0.0772 -0.01929,0 -0.01929,-0.0193 -0.559483,0.86817 -1.292599,1.60128 -0.424436,0.40515 -0.926042,0.71383 -0.848872,0.0965 -1.080382,-0.61736 -0.250803,-0.67524 -0.327973,-1.40836 -0.115755,-0.61736 -0.05788,-1.23472 0,0.0386 0,0.0579 -0.01929,-0.17364 0,-0.34727 0,-0.0579 0.03859,-0.13505 -0.01929,-0.0965 0.01929,-0.19292 0.192925,-0.54019 0.30868,-1.11897 0.03858,-0.13505 0.154341,-0.23151 h 0.01929 q 0.03859,-0.0386 0.03859,-0.0965 0.03858,-0.11576 0,-0.25081 -0.05788,-0.17363 -0.01929,-0.36655 -0.03859,-0.19293 -0.03859,-0.40515 -0.231511,-0.73311 -0.135048,-1.46623 0.01929,-0.30868 0.135048,-0.61736 0.05788,-0.21222 0.289388,-0.34727 0.07717,0.19293 0.30868,0.17364 0.05788,0.15434 0.212218,0.0965 0.09646,-0.0772 0.250803,-0.0386 0.15434,-0.0772 0.212218,-0.23151 0.05788,-0.0193 0.09646,-0.0772 0,-0.0193 0.03859,-0.0579 0.05788,-0.0193 0.115755,-0.0579 0.05788,-0.15434 0.03858,-0.30868 0,-0.0193 0.03859,-0.0386 0.01929,-0.40514 -0.07717,-0.82958 -0.09646,-0.48231 -0.289388,-0.96462 -0.115755,-0.23151 -0.212218,-0.46302 -0.192925,-0.17364 -0.308681,-0.36656 -0.07717,-0.15434 -0.212217,-0.2701 v 0 q -0.05788,0 -0.03858,-0.0386 z m -1.080382,4.26365 q 0.03859,-0.32797 0.115755,-0.67524 -0.192925,0.57878 -0.173633,1.19614 -0.01929,-0.11575 0.01929,-0.2508 -0.01929,0.0193 0.01929,0.0386 -0.01929,-0.15434 0.01929,-0.30868 z m 0,-0.46302 q 0.05788,-0.21222 0.115755,-0.42443 -0.05788,0.15434 -0.07717,0.28938 -0.03859,0.0772 -0.03859,0.13505 z m 0.250803,-0.42443 q -0.07717,0.21221 -0.135048,0.40514 0,0.0965 0,0.15434 -0.03858,0.0965 0,0.17363 -0.01929,0.0193 -0.03858,0 -0.03858,0.0579 0,0.0772 -0.03858,0.2701 -0.01929,0.54019 0.05788,-0.67524 0.192925,-1.35047 z m 0.135048,0.21221 q -0.03858,0.15434 -0.03858,0.28939 -0.09646,0.30868 -0.09646,0.59807 0.03858,-0.2508 0.09646,-0.54019 0.03858,-0.17363 0.03858,-0.34727 z m 3.819922,5.82635 q -0.115756,0.15434 -0.192926,0.30868 h -0.05788 q 0.192925,-0.19293 0.327973,-0.44373 -0.01929,0.0965 -0.07717,0.13505 z m 0.15434,-0.36656 q -0.01929,0.11576 -0.07717,0.17363 v -0.0193 q -0.03859,0.0772 -0.07717,0.15434 h -0.01929 q -0.03859,0.0193 -0.03859,0.0386 0.05788,-0.0386 0.03859,-0.11576 h 0.01929 v 0 q 0.01929,-0.0386 0.07717,-0.0772 0,-0.0579 0.05788,-0.11575 0,-0.0193 0.01929,-0.0386 z m 0.945334,1.13826 v 0 q -0.135048,0.23151 -0.30868,0.46302 0.15434,-0.2508 0.327973,-0.5016 0,0.0386 -0.01929,0.0386 z"
         style="font-style:normal;font-variant:normal;font-weight:normal;font-stretch:normal;font-size:19.75555611px;font-family:KswGoryuNewN;-inkscape-font-specification:KswGoryuNewN;letter-spacing:-1.32291663px;stroke-width:0.5;fill:#ff0000;stroke-miterlimit:4;stroke-dasharray:none;stroke:#590000;stroke-opacity:1"
         id="path1590" />
      <path
         d="m 26.771402,280.16313 q -0.289388,-0.0772 -0.578776,-0.11576 -0.23151,-0.0386 -0.424435,-0.0772 -1.581988,-0.17363 -2.836003,0.32797 -1.13826,0.61736 -1.408355,1.44694 -0.463021,1.09968 -0.05788,2.19935 0.07717,0.34727 0.327973,0.65595 0.559484,0.96463 2.218642,1.50482 0,0.0193 -0.01929,0 0.07717,0.0579 0.192926,0.0772 0.192925,0.0772 0.405143,0.13504 v 0.0193 q 0.173633,0.0772 0.385851,0.11575 0.250803,0.0772 0.46302,0.19293 0.03859,0.0193 0.115756,0.0193 0.01929,0.0193 0.01929,-0.0193 0.752409,0.27009 1.196137,0.69453 0.308681,0.36656 0.173633,0.73312 -0.15434,0.28938 -0.636653,0.40514 -0.463021,0.19292 -1.022505,0.21222 -1.234722,-0.0965 -1.929253,-0.61736 -1.022505,-0.61737 -1.736329,-1.35048 -0.675238,-0.71383 -1.176844,-1.46624 -0.231511,-0.32797 -0.405143,-0.67523 -0.03859,-0.0579 -0.05788,-0.13505 -0.07717,-0.0386 -0.09646,-0.0965 0.01929,0.0386 0.01929,0.0579 -0.05788,0 -0.05788,-0.0386 v 0.0193 q 0.01929,0.0579 0.115755,0.0772 -0.05788,-0.0193 -0.05788,-0.0193 0,-0.0193 0.05788,-0.0386 v 0.0193 q 0.01929,0.0386 0,0.0579 0,0.0579 0.05788,0.11576 -0.05788,-0.0386 -0.115755,-0.0965 -0.03859,-0.0386 -0.05788,-0.0965 -0.05788,-0.0579 -0.05788,-0.13504 -0.03859,0 -0.03859,-0.0193 v -0.0386 q 0,-0.0193 -0.01929,-0.0386 0,0.0193 -0.01929,0.0193 -0.03859,-0.0386 -0.01929,-0.0772 0.03859,0.0193 0.03859,0.0386 -0.03859,-0.0386 -0.09646,-0.0772 -0.01929,-0.0193 0,-0.0386 h 0.03858 q -0.05788,-0.0193 -0.07717,-0.0579 0,0.0386 0.01929,0.0772 0.01929,0.0579 0.07717,0.0965 0.01929,0.0772 0.03859,0.15434 0.01929,0.11576 0.05788,0.21222 -0.03859,-0.0579 -0.03859,-0.11576 -0.01929,0.0579 0.03859,0.11576 v -0.0193 q 0.01929,0.0193 0.01929,0.0579 -0.01929,0 -0.01929,-0.0386 -0.01929,0.0579 0.01929,0.0772 -0.03859,0.0193 -0.01929,-0.0193 0,0.0193 -0.01929,0.0193 -0.01929,0 -0.01929,-0.0193 v -0.0772 0.0193 q 0,-0.0386 -0.01929,-0.0772 0.01929,0.0386 0,0.0772 -0.01929,-0.0193 -0.03859,-0.0579 -0.01929,-0.0386 -0.01929,-0.11575 -0.09646,-0.11576 -0.09646,-0.25081 -0.07717,-0.0193 -0.05788,-0.0772 -0.01929,0.0579 0.01929,0.0772 h -0.01929 v -0.0193 0.0386 -0.0193 q 0,0.0193 0.03858,0.0193 -0.01929,0.0193 -0.01929,0.0386 h -0.01929 q -0.01929,0.0386 0.01929,0.0386 -0.01929,0.0193 0.01929,0 -0.03858,0.0386 0,0.0579 -0.01929,0.0772 0.01929,0.15434 v -0.0193 q 0,0.0193 0.01929,0.0193 v -0.0193 q 0.01929,0.0386 0.03859,0.0579 -0.03859,0.0193 0,0 0.03858,0.0386 0,0.0579 -0.03859,0 -0.03859,-0.0193 v -0.0579 q 0,0.0386 0.01929,0 h -0.01929 q -0.03859,0.0193 -0.01929,0.0579 v 0.0193 q 0.01929,0 0.01929,0.0193 0.01929,0 0.01929,0 0,0.0386 -0.01929,0.0386 0,0.0386 0.01929,0.0579 v -0.0386 q 0.01929,-0.0193 0.05788,-0.0193 -0.01929,0.0193 0.03859,0.0386 0.01929,0.0386 0.01929,0.0772 -0.01929,-0.0193 -0.03859,-0.0579 0,0.0193 -0.01929,0.0193 -0.03858,0.0193 -0.03858,0 -0.03859,0.0386 0.05788,0.0579 0,0.0386 0.01929,0.0579 h -0.03859 q 0,0.0579 0.05788,0.11575 v 0.0965 q 0.01929,0.0193 0.01929,0.0193 -0.03859,0.0386 -0.01929,0.0579 v -0.0772 q -0.05788,-0.0193 -0.03859,-0.0772 -0.03859,0.0193 0,0.0193 -0.03859,0.0579 0.01929,0.0772 0.01929,0.0772 0.01929,0.15434 0.01929,0.0193 0.01929,0.0579 0,0.0772 0.03859,0.13505 0.01929,0.0965 0.05788,0.19292 v 0.0193 q 0,0.0965 0.05788,0.17364 0.03859,0.0386 0.07717,0.0965 0.03859,0.0579 0.03859,0.11575 -0.03859,0 -0.03859,-0.0386 -0.173633,-0.23151 -0.212218,-0.50161 -0.03858,-0.0193 -0.01929,-0.0386 0,-0.0193 -0.01929,-0.0386 -0.01929,0.0386 0.01929,0.0772 0,0.0579 0.01929,0.11576 0,0.0193 0.01929,0.0193 v 0.0772 q -0.01929,0.0579 0.03859,0.0579 0,0.11575 0.05788,0.23151 -0.05788,-0.0965 -0.07717,-0.19293 -0.03859,-0.13504 -0.07717,-0.2508 v 0 q 0.05788,0.2701 0.173633,0.5209 0.05788,0.15434 0.135048,0.28939 -0.03859,-0.0193 -0.01929,-0.0579 v 0.0193 q -0.05788,-0.0579 -0.115755,-0.11575 0,0.0386 0.05788,0.0772 -0.09646,-0.0579 -0.115755,-0.13505 -0.03859,-0.0386 -0.01929,-0.0965 0,0.0772 0.07717,0.13504 0,-0.0579 -0.05788,-0.13504 v 0.0386 q -0.05788,-0.0772 -0.03859,-0.17363 h -0.01929 q -0.05788,-0.0772 -0.03859,-0.13505 -0.03859,-0.0193 -0.01929,-0.0772 0,0.0965 0.01929,0.0772 v 0.0965 q -0.03859,-0.0193 -0.01929,-0.0386 -0.01929,0 -0.01929,0.0193 h 0.01929 q -0.01929,0 -0.01929,0.0193 0.01929,0.0386 0.01929,0.0579 h 0.01929 q -0.03859,-0.0193 -0.01929,-0.0579 0,0.0386 0.01929,0.0579 h -0.01929 q -0.01929,0.0386 0.01929,0.0579 -0.01929,0.0386 0.01929,0.0772 -0.01929,0.0386 0.01929,0.0386 v 0.0386 -0.0193 -0.0193 q 0.05788,0.0386 0,0.0772 0.01929,0 0.01929,-0.0193 0,0.0193 0.01929,0.0193 -0.01929,0.0579 0.01929,0.0772 0.01929,0.0386 0,0.0579 0.03858,-0.0193 0.115755,0 0,0.0386 -0.05788,0.0386 0.135048,0.30868 0.327973,0.59807 v 0.0193 q -0.01929,0.0386 0.05788,0.0579 -0.01929,0.0579 0.03859,0.0965 0,0.0193 0.01929,0.0193 0,0.0965 0.09646,0.15434 0.09646,0.15434 0.192925,0.28939 0,0.0386 0.03859,0.0579 0,0.0386 0.05788,0.0579 0,0.0386 0.03859,0.0579 0.03859,0 0.05788,-0.0193 -0.01929,0.0193 0.01929,0.0193 -0.01929,0.0772 0.03859,0.11576 0.01929,0.0386 0.05788,0.0772 0,0.0386 0.03859,0.0193 0.09646,0.15434 0.212218,0.28939 h 0.01929 q 0.424436,0.55948 1.196137,1.0225 0.443729,0.34727 0.98392,0.67524 0.03858,-0.0193 0.07717,0 0.135048,0.0579 0.250803,0.13505 0.03858,0.0193 0.07717,0.0386 0.05788,0.0386 0.115755,0.0193 0,0.0193 0.03859,0 v 0.0386 h 0.05788 q 0.05788,0.0386 0.15434,0.0579 0.03858,0.0193 0.135048,0.0193 v -0.0193 q 0.01929,0.0193 0.07717,0.0386 0.01929,0 0.03858,0.0193 0.05788,0.0386 0.15434,0.0193 0.03859,0.0386 0.135048,0.0386 0.09646,0 0.15434,0.0386 h 0.135048 q 0.115755,0.0193 0.289388,0.0193 h 0.09646 q 0.09646,0.0386 0.23151,0 0.03859,-0.0193 0.09646,0 0.15434,-0.0193 0.347266,-0.0386 0.347265,-0.0386 0.713823,-0.11576 0.154341,0 0.308681,-0.0386 0.01929,0.0193 0.05788,0 0.01929,0 0.01929,-0.0193 0.07717,-0.0193 0.212218,-0.0193 0.05788,0 0.115755,-0.0193 v -0.0386 q 0.212218,-0.0193 0.366558,-0.15434 0.03859,0.0386 0.07717,0 h 0.01929 q 0.540191,-0.27009 0.713824,-0.67524 0.03858,-0.0386 0.07717,-0.11575 0.01929,-0.0965 0.07717,-0.21222 0.270096,-0.61736 0.01929,-1.23472 -0.250803,-0.92604 -1.254015,-1.71704 -0.231511,-0.15434 -0.501606,-0.32797 -1.254015,-0.59807 -2.604492,-1.15755 -0.945335,-0.34727 -1.234723,-0.94534 -0.327973,-0.67523 0.231511,-1.31189 0.15434,-0.19292 0.559483,-0.27009 0.154341,-0.0386 0.347266,-0.0386 0.173633,-0.0386 0.405143,-0.0579 h 0.424436 q 0.424436,0.0772 0.752409,0.21222 0.713824,0.50161 1.080382,1.09968 0.03858,0.19292 0.212218,0.36655 0.173633,0.13505 0.424436,0.0386 0.07717,0.0579 0.23151,0.0772 0,0.0386 0.05788,0.0386 -0.03859,0 -0.01929,-0.0193 -0.03858,0 0,-0.0193 0.07717,0.0193 0.15434,0 0,-0.0579 0.115756,-0.0579 0,0.0772 0.115755,0.0579 0.01929,-0.0772 0.03858,-0.13505 0.289388,-0.23151 0.250803,-0.48231 -0.03859,-0.0965 0,-0.19293 0,-0.27009 -0.05788,-0.54019 -0.03859,-0.0193 -0.03859,-0.0772 -0.03859,-0.23151 -0.135048,-0.48231 -0.30868,-0.57878 -0.868164,-1.13826 -0.327973,-0.21222 -0.752409,-0.40514 z m -6.482291,6.42441 q -0.09646,-0.13505 -0.173633,-0.2701 -0.09646,-0.21221 -0.212218,-0.42443 0.135048,0.34726 0.385851,0.69453 z m -0.173633,-0.17363 q -0.03859,-0.0386 -0.03859,-0.0772 -0.01929,-0.0193 -0.03858,-0.0772 0.01929,0.0579 0.01929,0.11575 0.250803,0.44373 0.578776,0.88746 -0.23151,-0.38585 -0.463021,-0.75241 -0.03859,-0.0386 -0.03859,-0.0965 0,0.0386 -0.01929,0.0386 -0.03859,-0.0193 -0.03859,-0.0579 0.01929,0 0.03859,0.0193 z"
         style="font-style:normal;font-variant:normal;font-weight:normal;font-stretch:normal;font-size:19.75555611px;font-family:KswGoryuNewN;-inkscape-font-specification:KswGoryuNewN;letter-spacing:-1.32291663px;stroke-width:0.5;fill:#ff0000;stroke-miterlimit:4;stroke-dasharray:none;stroke:#590000;stroke-opacity:1"
         id="path1592" />
      <path
         d="m 35.326265,280.16313 q -0.289388,-0.0772 -0.578776,-0.11576 -0.23151,-0.0386 -0.424435,-0.0772 -1.581988,-0.17363 -2.836003,0.32797 -1.13826,0.61736 -1.408355,1.44694 -0.463021,1.09968 -0.05788,2.19935 0.07717,0.34727 0.327973,0.65595 0.559484,0.96463 2.218642,1.50482 0,0.0193 -0.01929,0 0.07717,0.0579 0.192926,0.0772 0.192925,0.0772 0.405143,0.13504 v 0.0193 q 0.173633,0.0772 0.385851,0.11575 0.250803,0.0772 0.46302,0.19293 0.03858,0.0193 0.115756,0.0193 0.01929,0.0193 0.01929,-0.0193 0.752409,0.27009 1.196137,0.69453 0.308681,0.36656 0.173633,0.73312 -0.15434,0.28938 -0.636654,0.40514 -0.46302,0.19292 -1.022504,0.21222 -1.234722,-0.0965 -1.929253,-0.61736 -1.022505,-0.61737 -1.736329,-1.35048 -0.675238,-0.71383 -1.176844,-1.46624 -0.231511,-0.32797 -0.405143,-0.67523 -0.03859,-0.0579 -0.05788,-0.13505 -0.07717,-0.0386 -0.09646,-0.0965 0.01929,0.0386 0.01929,0.0579 -0.05788,0 -0.05788,-0.0386 v 0.0193 q 0.01929,0.0579 0.115755,0.0772 -0.05788,-0.0193 -0.05788,-0.0193 0,-0.0193 0.05788,-0.0386 v 0.0193 q 0.01929,0.0386 0,0.0579 0,0.0579 0.05788,0.11576 -0.05788,-0.0386 -0.115755,-0.0965 -0.03859,-0.0386 -0.05788,-0.0965 -0.05788,-0.0579 -0.05788,-0.13504 -0.03859,0 -0.03859,-0.0193 v -0.0386 q 0,-0.0193 -0.01929,-0.0386 0,0.0193 -0.01929,0.0193 -0.03859,-0.0386 -0.01929,-0.0772 0.03859,0.0193 0.03859,0.0386 -0.03859,-0.0386 -0.09646,-0.0772 -0.01929,-0.0193 0,-0.0386 h 0.03858 q -0.05788,-0.0193 -0.07717,-0.0579 0,0.0386 0.01929,0.0772 0.01929,0.0579 0.07717,0.0965 0.01929,0.0772 0.03859,0.15434 0.01929,0.11576 0.05788,0.21222 -0.03859,-0.0579 -0.03859,-0.11576 -0.01929,0.0579 0.03859,0.11576 v -0.0193 q 0.01929,0.0193 0.01929,0.0579 -0.01929,0 -0.01929,-0.0386 -0.01929,0.0579 0.01929,0.0772 -0.03859,0.0193 -0.01929,-0.0193 0,0.0193 -0.01929,0.0193 -0.01929,0 -0.01929,-0.0193 v -0.0772 0.0193 q 0,-0.0386 -0.01929,-0.0772 0.01929,0.0386 0,0.0772 -0.01929,-0.0193 -0.03859,-0.0579 -0.01929,-0.0386 -0.01929,-0.11575 -0.09646,-0.11576 -0.09646,-0.25081 -0.07717,-0.0193 -0.05788,-0.0772 -0.01929,0.0579 0.01929,0.0772 h -0.01929 v -0.0193 0.0386 -0.0193 q 0,0.0193 0.03858,0.0193 -0.01929,0.0193 -0.01929,0.0386 h -0.01929 q -0.01929,0.0386 0.01929,0.0386 -0.01929,0.0193 0.01929,0 -0.03858,0.0386 0,0.0579 -0.01929,0.0772 0.01929,0.15434 v -0.0193 q 0,0.0193 0.01929,0.0193 v -0.0193 q 0.01929,0.0386 0.03859,0.0579 -0.03859,0.0193 0,0 0.03858,0.0386 0,0.0579 -0.03859,0 -0.03859,-0.0193 v -0.0579 q 0,0.0386 0.01929,0 h -0.01929 q -0.03859,0.0193 -0.01929,0.0579 v 0.0193 q 0.01929,0 0.01929,0.0193 0.01929,0 0.01929,0 0,0.0386 -0.01929,0.0386 0,0.0386 0.01929,0.0579 v -0.0386 q 0.01929,-0.0193 0.05788,-0.0193 -0.01929,0.0193 0.03859,0.0386 0.01929,0.0386 0.01929,0.0772 -0.01929,-0.0193 -0.03859,-0.0579 0,0.0193 -0.01929,0.0193 -0.03858,0.0193 -0.03858,0 -0.03859,0.0386 0.05788,0.0579 0,0.0386 0.01929,0.0579 h -0.03859 q 0,0.0579 0.05788,0.11575 v 0.0965 q 0.01929,0.0193 0.01929,0.0193 -0.03859,0.0386 -0.01929,0.0579 v -0.0772 q -0.05788,-0.0193 -0.03859,-0.0772 -0.03859,0.0193 0,0.0193 -0.03859,0.0579 0.01929,0.0772 0.01929,0.0772 0.01929,0.15434 0.01929,0.0193 0.01929,0.0579 0,0.0772 0.03859,0.13505 0.01929,0.0965 0.05788,0.19292 v 0.0193 q 0,0.0965 0.05788,0.17364 0.03859,0.0386 0.07717,0.0965 0.03859,0.0579 0.03859,0.11575 -0.03859,0 -0.03859,-0.0386 -0.173633,-0.23151 -0.212218,-0.50161 -0.03858,-0.0193 -0.01929,-0.0386 0,-0.0193 -0.01929,-0.0386 -0.01929,0.0386 0.01929,0.0772 0,0.0579 0.01929,0.11576 0,0.0193 0.01929,0.0193 v 0.0772 q -0.01929,0.0579 0.03859,0.0579 0,0.11575 0.05788,0.23151 -0.05788,-0.0965 -0.07717,-0.19293 -0.03859,-0.13504 -0.07717,-0.2508 v 0 q 0.05788,0.2701 0.173633,0.5209 0.05788,0.15434 0.135048,0.28939 -0.03859,-0.0193 -0.01929,-0.0579 v 0.0193 q -0.05788,-0.0579 -0.115755,-0.11575 0,0.0386 0.05788,0.0772 -0.09646,-0.0579 -0.115755,-0.13505 -0.03859,-0.0386 -0.01929,-0.0965 0,0.0772 0.07717,0.13504 0,-0.0579 -0.05788,-0.13504 v 0.0386 q -0.05788,-0.0772 -0.03859,-0.17363 h -0.01929 q -0.05788,-0.0772 -0.03859,-0.13505 -0.03859,-0.0193 -0.01929,-0.0772 0,0.0965 0.01929,0.0772 v 0.0965 q -0.03859,-0.0193 -0.01929,-0.0386 -0.01929,0 -0.01929,0.0193 h 0.01929 q -0.01929,0 -0.01929,0.0193 0.01929,0.0386 0.01929,0.0579 h 0.01929 q -0.03859,-0.0193 -0.01929,-0.0579 0,0.0386 0.01929,0.0579 h -0.01929 q -0.01929,0.0386 0.01929,0.0579 -0.01929,0.0386 0.01929,0.0772 -0.01929,0.0386 0.01929,0.0386 v 0.0386 -0.0193 -0.0193 q 0.05788,0.0386 0,0.0772 0.01929,0 0.01929,-0.0193 0,0.0193 0.01929,0.0193 -0.01929,0.0579 0.01929,0.0772 0.01929,0.0386 0,0.0579 0.03858,-0.0193 0.115755,0 0,0.0386 -0.05788,0.0386 0.135048,0.30868 0.327973,0.59807 v 0.0193 q -0.01929,0.0386 0.05788,0.0579 -0.01929,0.0579 0.03859,0.0965 0,0.0193 0.01929,0.0193 0,0.0965 0.09646,0.15434 0.09646,0.15434 0.192925,0.28939 0,0.0386 0.03859,0.0579 0,0.0386 0.05788,0.0579 0,0.0386 0.03859,0.0579 0.03858,0 0.05788,-0.0193 -0.01929,0.0193 0.01929,0.0193 -0.01929,0.0772 0.03859,0.11576 0.01929,0.0386 0.05788,0.0772 0,0.0386 0.03859,0.0193 0.09646,0.15434 0.212218,0.28939 h 0.01929 q 0.424436,0.55948 1.196137,1.0225 0.443729,0.34727 0.98392,0.67524 0.03859,-0.0193 0.07717,0 0.135048,0.0579 0.250803,0.13505 0.03859,0.0193 0.07717,0.0386 0.05788,0.0386 0.115755,0.0193 0,0.0193 0.03858,0 v 0.0386 h 0.05788 q 0.05788,0.0386 0.15434,0.0579 0.03858,0.0193 0.135048,0.0193 v -0.0193 q 0.01929,0.0193 0.07717,0.0386 0.01929,0 0.03858,0.0193 0.05788,0.0386 0.15434,0.0193 0.03858,0.0386 0.135048,0.0386 0.09646,0 0.15434,0.0386 h 0.135048 q 0.115755,0.0193 0.289388,0.0193 h 0.09646 q 0.09646,0.0386 0.23151,0 0.03859,-0.0193 0.09646,0 0.15434,-0.0193 0.347266,-0.0386 0.347265,-0.0386 0.713823,-0.11576 0.154341,0 0.308681,-0.0386 0.01929,0.0193 0.05788,0 0.01929,0 0.01929,-0.0193 0.07717,-0.0193 0.212218,-0.0193 0.05788,0 0.115755,-0.0193 v -0.0386 q 0.212218,-0.0193 0.366558,-0.15434 0.03858,0.0386 0.07717,0 h 0.01929 q 0.540191,-0.27009 0.713824,-0.67524 0.03858,-0.0386 0.07717,-0.11575 0.01929,-0.0965 0.07717,-0.21222 0.270096,-0.61736 0.01929,-1.23472 -0.250803,-0.92604 -1.254015,-1.71704 -0.231511,-0.15434 -0.501606,-0.32797 -1.254015,-0.59807 -2.604492,-1.15755 -0.945335,-0.34727 -1.234723,-0.94534 -0.327973,-0.67523 0.231511,-1.31189 0.15434,-0.19292 0.559483,-0.27009 0.154341,-0.0386 0.347266,-0.0386 0.173633,-0.0386 0.405143,-0.0579 h 0.424436 q 0.424436,0.0772 0.752409,0.21222 0.713824,0.50161 1.080382,1.09968 0.03858,0.19292 0.212218,0.36655 0.173633,0.13505 0.424435,0.0386 0.07717,0.0579 0.231511,0.0772 0,0.0386 0.05788,0.0386 -0.03859,0 -0.01929,-0.0193 -0.03858,0 0,-0.0193 0.07717,0.0193 0.15434,0 0,-0.0579 0.115755,-0.0579 0,0.0772 0.115756,0.0579 0.01929,-0.0772 0.03858,-0.13505 0.289388,-0.23151 0.250803,-0.48231 -0.03858,-0.0965 0,-0.19293 0,-0.27009 -0.05788,-0.54019 -0.03859,-0.0193 -0.03859,-0.0772 -0.03858,-0.23151 -0.135048,-0.48231 -0.30868,-0.57878 -0.868164,-1.13826 -0.327973,-0.21222 -0.752409,-0.40514 z m -6.482292,6.42441 q -0.09646,-0.13505 -0.173632,-0.2701 -0.09646,-0.21221 -0.212218,-0.42443 0.135048,0.34726 0.38585,0.69453 z m -0.173632,-0.17363 q -0.03859,-0.0386 -0.03859,-0.0772 -0.01929,-0.0193 -0.03858,-0.0772 0.01929,0.0579 0.01929,0.11575 0.250803,0.44373 0.578776,0.88746 -0.23151,-0.38585 -0.463021,-0.75241 -0.03858,-0.0386 -0.03858,-0.0965 0,0.0386 -0.01929,0.0386 -0.03859,-0.0193 -0.03859,-0.0579 0.01929,0 0.03859,0.0193 z"
         style="font-style:normal;font-variant:normal;font-weight:normal;font-stretch:normal;font-size:19.75555611px;font-family:KswGoryuNewN;-inkscape-font-specification:KswGoryuNewN;letter-spacing:-1.32291663px;stroke-width:0.5;fill:#ff0000;stroke-miterlimit:4;stroke-dasharray:none;stroke:#590000;stroke-opacity:1"
         id="path1594" />
    </g>
  </g>
</svg>
