<?xml version="1.0" encoding="UTF-8" standalone="no"?>
<!-- Created with Inkscape (http://www.inkscape.org/) -->

<svg
   xmlns:dc="http://purl.org/dc/elements/1.1/"
   xmlns:cc="http://creativecommons.org/ns#"
   xmlns:rdf="http://www.w3.org/1999/02/22-rdf-syntax-ns#"
   xmlns:svg="http://www.w3.org/2000/svg"
   xmlns="http://www.w3.org/2000/svg"
   xmlns:sodipodi="http://sodipodi.sourceforge.net/DTD/sodipodi-0.dtd"
   xmlns:inkscape="http://www.inkscape.org/namespaces/inkscape"
   width="1000"
   height="100"
   viewBox="0 0 264.58333 26.458334"
   version="1.1"
   id="svg8"
   inkscape:version="0.92.3 (2405546, 2018-03-11)"
   sodipodi:docname="Num.svg"
   inkscape:export-filename="C:\projects\IkkiuchiV2\Assets\Sprites\Num.png"
   inkscape:export-xdpi="96"
   inkscape:export-ydpi="96">
  <defs
     id="defs2" />
  <sodipodi:namedview
     id="base"
     pagecolor="#ffffff"
     bordercolor="#666666"
     borderopacity="1.0"
     inkscape:pageopacity="0.0"
     inkscape:pageshadow="2"
     inkscape:zoom="1"
     inkscape:cx="661.08026"
     inkscape:cy="-45.025253"
     inkscape:document-units="mm"
     inkscape:current-layer="layer1"
     showgrid="true"
     units="px"
     inkscape:snap-bbox="true"
     inkscape:snap-bbox-midpoints="true"
     inkscape:snap-object-midpoints="true"
     inkscape:window-width="1920"
     inkscape:window-height="1017"
     inkscape:window-x="-8"
     inkscape:window-y="-8"
     inkscape:window-maximized="1">
    <inkscape:grid
       type="xygrid"
       id="grid815"
       spacingx="13.229167"
       spacingy="13.229167" />
  </sodipodi:namedview>
  <metadata
     id="metadata5">
    <rdf:RDF>
      <cc:Work
         rdf:about="">
        <dc:format>image/svg+xml</dc:format>
        <dc:type
           rdf:resource="http://purl.org/dc/dcmitype/StillImage" />
        <dc:title></dc:title>
      </cc:Work>
    </rdf:RDF>
  </metadata>
  <g
     inkscape:label="レイヤー 1"
     inkscape:groupmode="layer"
     id="layer1"
     transform="translate(0,-270.54164)">
    <text
       xml:space="preserve"
       style="font-style:normal;font-weight:normal;font-size:10.58333302px;line-height:1.25;font-family:KswGoryuNewN;letter-spacing:0px;word-spacing:0px;fill:#ff0000;fill-opacity:1;stroke:none;stroke-width:0.26458332;-inkscape-font-specification:KswGoryuNewN;font-stretch:normal;font-variant:normal;"
       x="0"
       y="270.54163"
       id="text819"><tspan
         sodipodi:role="line"
         x="0"
         y="280.19711"
         style="fill:#ff0000;stroke-width:0.26458332;-inkscape-font-specification:KswGoryuNewN;font-family:KswGoryuNewN;font-weight:normal;font-style:normal;font-stretch:normal;font-variant:normal;"
         id="tspan821" /></text>
    <g
       aria-label="１"
       transform="scale(1.2135283,0.8240434)"
       style="font-style:normal;font-weight:normal;font-size:12.84317493px;line-height:1.25;font-family:sans-serif;letter-spacing:0px;word-spacing:0px;fill:#ff0000;fill-opacity:1;stroke:#4a1111;stroke-width:1.00000001;stroke-opacity:1;stroke-miterlimit:4;stroke-dasharray:none"
       id="text827"
       inkscape:export-filename="C:\projects\IkkiuchiV2\Assets\Sprites\Num.png"
       inkscape:export-xdpi="96"
       inkscape:export-ydpi="96">
      <path
         d="m 13.454753,333.6608 q 0.428106,2.4081 0.107027,4.46836 l -0.08027,6.20753 0.16054,10.08724 q -0.347836,1.25757 -1.65891,0.69568 -1.89972,-1.09702 -2.0870163,-3.37134 l 0.3210793,-13.05723 q 0.02676,0.16054 0.187296,0.13379 -0.802698,0.37459 -2.3010684,0.90972 l 0.347836,-1.39134 q 1.1505344,-2.32783 2.2743124,-4.84295 1.337831,-0.18729 2.729174,0.16054 z"
         style="font-style:normal;font-variant:normal;font-weight:normal;font-stretch:normal;font-size:27.39877319px;font-family:KswGoryuNewN;-inkscape-font-specification:KswGoryuNewN;fill:#ff0000;stroke-width:1.00000001;stroke:#4a1111;stroke-opacity:1;stroke-miterlimit:4;stroke-dasharray:none"
         id="path1026" />
    </g>
    <g
       aria-label="２"
       transform="scale(1.2135283,0.8240434)"
       style="font-style:normal;font-weight:normal;font-size:12.84317493px;line-height:1.25;font-family:sans-serif;letter-spacing:0px;word-spacing:0px;fill:#ff0000;fill-opacity:1;stroke:#4a1111;stroke-width:1.00000001;stroke-opacity:1;stroke-miterlimit:4;stroke-dasharray:none"
       id="text827-3"
       inkscape:export-filename="C:\projects\IkkiuchiV2\Assets\Sprites\Num.png"
       inkscape:export-xdpi="96"
       inkscape:export-ydpi="96">
      <path
         d="m 36.455391,334.25606 q 2.14053,1.92648 1.872964,4.57538 -1.311075,3.45161 -3.47836,6.34132 -2.167286,2.88971 -3.933223,4.84295 0.40135,-0.0268 2.06026,-0.0803 3.15728,1.36458 6.63564,0.26756 0.24081,3.07701 -1.792693,4.22755 -1.97999,0.37459 -3.826196,-0.26757 -1.846206,-0.6154 -3.585386,-0.37459 -0.989995,0.0535 -2.14053,0.98999 -1.123777,0.96324 -2.274312,-0.77594 -0.588645,-1.89972 0.374593,-2.96998 0.963238,-1.07027 1.65891,-2.2208 2.140529,-2.8362 4.174032,-5.72592 2.060259,-2.91647 2.702418,-6.20753 -0.749185,-0.45486 -1.792693,-0.16054 -1.043508,0.29432 -2.087016,0.74918 -1.230805,1.1773 -2.675662,2.56864 -1.150534,-0.26757 -1.819449,-1.2308 -0.16054,-1.57864 0.267566,-2.99675 4.254301,-3.39809 9.659137,-1.55188 z"
         style="font-style:normal;font-variant:normal;font-weight:normal;font-stretch:normal;font-size:27.39877319px;font-family:KswGoryuNewN;-inkscape-font-specification:KswGoryuNewN;fill:#ff0000;stroke-width:1.00000001;stroke:#4a1111;stroke-opacity:1;stroke-miterlimit:4;stroke-dasharray:none"
         id="path1023" />
    </g>
    <g
       aria-label="3"
       transform="scale(1.2135283,0.8240434)"
       style="font-style:normal;font-weight:normal;font-size:12.84317493px;line-height:1.25;font-family:sans-serif;letter-spacing:0px;word-spacing:0px;fill:#ff0000;fill-opacity:1;stroke:#4a1111;stroke-width:1.00000001;stroke-opacity:1;stroke-miterlimit:4;stroke-dasharray:none"
       id="text827-3-8"
       inkscape:export-filename="C:\projects\IkkiuchiV2\Assets\Sprites\Num.png"
       inkscape:export-xdpi="96"
       inkscape:export-ydpi="96">
      <path
         d="m 59.089371,336.06939 q 0.909724,2.40809 0.481619,4.70916 -1.444858,2.00675 -2.622149,2.35458 2.087016,0.82946 3.47836,4.20079 0.642159,3.07701 -0.775942,5.51186 -1.712423,1.55189 -3.906465,1.7927 -2.167286,0.24081 -3.050254,0.21405 -1.685667,-0.21405 -3.264307,-0.74919 -0.187297,-1.76593 -1.043508,-4.14727 4.468354,2.6489 8.481847,0.29432 1.070264,-1.4181 0.05351,-3.50512 -0.642159,-1.12377 -2.274312,-1.01675 -1.605397,0.0803 -3.157281,-0.0803 -0.401349,-1.76593 -0.535132,-3.55863 2.140529,0.0535 3.852952,-1.0435 1.73918,-1.12378 1.872963,-3.39809 -0.02676,-0.53514 -0.588645,-0.69568 -2.969984,-0.21405 -5.29781,1.73918 -1.551884,-0.64215 -1.551884,-2.19404 l -0.321079,-1.73918 q 2.541878,-0.82945 5.164027,-0.88297 2.622148,-0.0803 5.003487,2.19405 z"
         style="font-style:normal;font-variant:normal;font-weight:normal;font-stretch:normal;font-size:27.39877319px;font-family:KswGoryuNewN;-inkscape-font-specification:KswGoryuNewN;fill:#ff0000;stroke-width:1.00000001;stroke:#4a1111;stroke-opacity:1;stroke-miterlimit:4;stroke-dasharray:none"
         id="path1020" />
    </g>
    <g
       aria-label="4"
       transform="scale(1.2135283,0.8240434)"
       style="font-style:normal;font-weight:normal;font-size:12.84317493px;line-height:1.25;font-family:sans-serif;letter-spacing:0px;word-spacing:0px;fill:#ff0000;fill-opacity:1;stroke:#4a1111;stroke-width:1.00000001;stroke-opacity:1;stroke-miterlimit:4;stroke-dasharray:none"
       id="text827-3-7"
       inkscape:export-filename="C:\projects\IkkiuchiV2\Assets\Sprites\Num.png"
       inkscape:export-xdpi="96"
       inkscape:export-ydpi="96">
      <path
         d="m 78.945827,335.64127 q -0.214053,1.07026 0.32108,2.0335 0.561889,0.96324 0.722428,2.14053 -0.133783,3.50512 -0.294323,6.58213 0.32108,0.0535 1.150535,0.10702 0.856212,0.0268 1.284317,1.15054 0.481619,0.69567 0.508376,1.81945 -0.882968,0.72242 -1.685667,0.58864 -0.802698,-0.16054 -1.177291,-0.13378 0.02676,0.90972 0.16054,2.40809 0.133783,1.47162 -0.642159,2.86296 -1.632153,-0.29432 -2.381338,-1.95323 0.08027,-1.95323 0.214052,-3.26431 -2.99674,-0.0803 -6.39483,0.88297 -0.775942,-1.57864 -0.749186,-3.10377 1.418101,-3.95998 3.103768,-7.73266 1.685666,-3.77268 4.762677,-6.50186 0.909725,0.32108 0.936482,0.99 0.02676,0.64216 0.160539,1.12378 z m -1.846206,10.75616 q 0.321079,-4.0135 0.267566,-7.4651 -2.541878,3.31782 -3.986736,7.8932 z"
         style="font-style:normal;font-variant:normal;font-weight:normal;font-stretch:normal;font-size:27.39877319px;font-family:KswGoryuNewN;-inkscape-font-specification:KswGoryuNewN;fill:#ff0000;stroke-width:1.00000001;stroke:#4a1111;stroke-opacity:1;stroke-miterlimit:4;stroke-dasharray:none"
         id="path1017" />
    </g>
    <g
       aria-label="5"
       transform="scale(1.2135283,0.8240434)"
       style="font-style:normal;font-weight:normal;font-size:12.84317493px;line-height:1.25;font-family:sans-serif;letter-spacing:0px;word-spacing:0px;fill:#ff0000;fill-opacity:1;stroke:#4a1111;stroke-width:1.00000001;stroke-opacity:1;stroke-miterlimit:4;stroke-dasharray:none"
       id="text827-3-7-4"
       inkscape:export-filename="C:\projects\IkkiuchiV2\Assets\Sprites\Num.png"
       inkscape:export-xdpi="96"
       inkscape:export-ydpi="96">
      <path
         d="m 96.500997,334.4441 q 3.451603,-0.29433 6.475103,-1.07027 0.66891,1.76594 0.0803,3.2108 -1.49837,0.98999 -3.10377,0.90972 -1.605397,-0.10702 -3.47836,-0.0535 -0.401349,2.11377 -0.428105,4.14727 1.150534,-0.21405 3.31782,0.13379 2.167285,0.32108 3.317815,2.19404 2.16729,3.74592 0.85622,7.59888 -1.15054,2.38134 -2.72918,3.15728 -1.551882,0.77594 -4.09376,0.66891 -1.97999,-0.24081 -3.799439,-1.65891 -0.02676,-1.95323 -0.722429,-5.11051 4.388085,4.52187 7.03699,2.72917 1.471618,-1.01675 1.846208,-2.99674 0.0803,-1.79269 -0.88297,-3.2643 -1.391344,-1.04351 -3.505117,-0.42811 -0.775942,1.01675 -2.247555,0.96324 -1.846207,-2.24756 -1.364588,-4.52187 0.481619,-2.27431 0.454863,-4.36133 l -0.08027,-3.21079 q 1.792693,0.24081 3.050254,0.96324 z"
         style="font-style:normal;font-variant:normal;font-weight:normal;font-stretch:normal;font-size:27.39877319px;font-family:KswGoryuNewN;-inkscape-font-specification:KswGoryuNewN;fill:#ff0000;stroke-width:1.00000001;stroke:#4a1111;stroke-opacity:1;stroke-miterlimit:4;stroke-dasharray:none"
         id="path1014" />
    </g>
    <g
       aria-label="6"
       transform="scale(1.2135283,0.8240434)"
       style="font-style:normal;font-weight:normal;font-size:12.84317493px;line-height:1.25;font-family:sans-serif;letter-spacing:0px;word-spacing:0px;fill:#ff0000;fill-opacity:1;stroke:#4a1111;stroke-width:1.00000001;stroke-opacity:1;stroke-miterlimit:4;stroke-dasharray:none"
       id="text827-3-7-4-0"
       inkscape:export-filename="C:\projects\IkkiuchiV2\Assets\Sprites\Num.png"
       inkscape:export-xdpi="96"
       inkscape:export-ydpi="96">
      <path
         d="m 124.633,334.8352 q -1.84621,1.49837 -3.58539,3.6389 -1.73918,2.14053 -2.4616,4.01349 0.98999,-0.13378 2.80944,0.26757 1.84621,0.37459 3.10377,1.92648 2.40809,3.85295 0.34783,7.38482 -1.65891,2.8362 -4.89646,2.99674 -3.95998,-0.24081 -5.69916,-4.49511 -0.85621,-5.27105 1.65891,-9.71265 1.95324,-4.01349 5.4316,-6.76942 1.20404,-1.12378 3.29106,0.74918 z m -2.80944,11.15751 q -0.56189,-0.74919 -1.52513,-0.66892 -0.93648,0.0535 -1.68567,0.29433 -1.36458,1.2308 -1.17729,3.15728 0.21405,0.96324 0.48162,1.89972 0.26757,0.93648 1.17729,1.31107 1.09702,0.32108 1.97999,-0.45486 0.99,-1.04351 1.01675,-2.56864 0.0535,-1.52512 -0.26756,-2.96998 z"
         style="font-style:normal;font-variant:normal;font-weight:normal;font-stretch:normal;font-size:27.39877319px;font-family:KswGoryuNewN;-inkscape-font-specification:KswGoryuNewN;fill:#ff0000;stroke-width:1.00000001;stroke:#4a1111;stroke-opacity:1;stroke-miterlimit:4;stroke-dasharray:none"
         id="path1011" />
    </g>
    <g
       aria-label="7"
       transform="scale(1.2135283,0.8240434)"
       style="font-style:normal;font-weight:normal;font-size:12.84317493px;line-height:1.25;font-family:sans-serif;letter-spacing:0px;word-spacing:0px;fill:#ff0000;fill-opacity:1;stroke:#4a1111;stroke-width:1.00000001;stroke-opacity:1;stroke-miterlimit:4;stroke-dasharray:none"
       id="text827-3-7-4-0-6"
       inkscape:export-filename="C:\projects\IkkiuchiV2\Assets\Sprites\Num.png"
       inkscape:export-xdpi="96"
       inkscape:export-ydpi="96">
      <path
         d="m 148.1934,335.21227 -0.3746,0.88297 q -4.97673,8.26779 -6.4751,18.22125 -0.82945,1.33783 -2.06026,0.16054 -1.36458,-1.39134 -0.96324,-3.23755 0.42811,-1.84621 1.1773,-4.30782 1.39134,-5.29781 4.12051,-9.52535 l -0.58864,-0.10703 q -2.72918,0.85621 -6.39483,1.09702 -1.39135,-1.28431 -1.39135,-3.39809 2.48837,-0.69567 4.78944,-0.80269 2.32782,-0.10703 4.54862,-0.48162 1.92648,-0.16054 3.61215,1.49837 z"
         style="font-style:normal;font-variant:normal;font-weight:normal;font-stretch:normal;font-size:27.39877319px;font-family:KswGoryuNewN;-inkscape-font-specification:KswGoryuNewN;fill:#ff0000;stroke-width:1.00000001;stroke:#4a1111;stroke-opacity:1;stroke-miterlimit:4;stroke-dasharray:none"
         id="path1008" />
    </g>
    <g
       aria-label="8"
       transform="scale(1.2135283,0.8240434)"
       style="font-style:normal;font-weight:normal;font-size:12.84317493px;line-height:1.25;font-family:sans-serif;letter-spacing:0px;word-spacing:0px;fill:#ff0000;fill-opacity:1;stroke:#4a1111;stroke-width:1.00000001;stroke-opacity:1;stroke-miterlimit:4;stroke-dasharray:none"
       id="text827-3-7-4-0-6-4"
       inkscape:export-filename="C:\projects\IkkiuchiV2\Assets\Sprites\Num.png"
       inkscape:export-xdpi="96"
       inkscape:export-ydpi="96">
      <path
         d="m 168.95853,335.48783 q 1.1773,2.19405 0.1873,3.93323 -0.26757,1.52512 -1.49837,2.35458 -1.20405,0.82945 -1.84621,1.25756 1.12378,1.09702 2.67567,2.72917 1.55188,1.6054 1.47161,4.06701 0.0535,1.97999 -1.36459,3.21079 -1.4181,1.23081 -3.13052,1.87297 -4.22755,1.33783 -7.19753,-1.92648 -1.79269,-3.10377 -0.82946,-6.68915 1.68567,-2.24756 3.42485,-3.37134 -2.54188,-1.8462 -2.67566,-5.72591 1.55188,-2.80945 4.76268,-3.55863 3.58538,-0.88297 6.02023,1.8462 z m -2.96998,2.08702 q -1.17729,-1.55188 -3.05025,-1.07027 -1.23081,0.42811 -1.47162,1.63216 -0.0535,1.04351 0.66892,1.81945 0.74918,0.77594 1.44486,1.33783 1.63215,-0.93648 2.88971,-2.54188 0.0803,-0.6154 -0.48162,-1.17729 z m -2.75593,7.2778 h -0.0535 q -2.03351,1.65891 -2.51513,4.22754 -0.21405,1.76594 1.09703,3.05026 0.82945,0.69567 1.8462,0.45486 2.27431,-0.53513 2.62215,-2.70242 0.21405,-1.52512 -0.77594,-2.8362 -0.99,-1.31107 -2.2208,-2.19404 z"
         style="font-style:normal;font-variant:normal;font-weight:normal;font-stretch:normal;font-size:27.39877319px;font-family:KswGoryuNewN;-inkscape-font-specification:KswGoryuNewN;fill:#ff0000;stroke-width:1.00000001;stroke:#4a1111;stroke-opacity:1;stroke-miterlimit:4;stroke-dasharray:none"
         id="path1005" />
    </g>
    <g
       aria-label="9"
       transform="scale(1.2135283,0.8240434)"
       style="font-style:normal;font-weight:normal;font-size:12.84317493px;line-height:1.25;font-family:sans-serif;letter-spacing:0px;word-spacing:0px;fill:#ff0000;fill-opacity:1;stroke:#4a1111;stroke-width:1.00000001;stroke-opacity:1;stroke-miterlimit:4;stroke-dasharray:none"
       id="text827-3-7-4-0-6-4-8"
       inkscape:export-filename="C:\projects\IkkiuchiV2\Assets\Sprites\Num.png"
       inkscape:export-xdpi="96"
       inkscape:export-ydpi="96">
      <path
         d="m 191.04597,336.0063 q 1.01675,3.58539 -0.0535,6.95672 -1.04351,3.37133 -2.51512,6.39483 -1.04351,2.54188 -1.87296,5.37808 -0.69567,0.40135 -1.6054,0.24081 -1.49837,-1.17729 -1.65891,-2.86296 1.49837,-3.79944 3.26431,-6.74266 -0.16054,-0.0535 -0.66892,0.56189 -2.43485,0.66891 -4.73592,-0.56189 -2.35458,-2.67567 -2.06026,-5.91322 0.10703,-2.40809 1.84621,-3.74592 1.73918,-1.36459 3.90646,-2.00675 1.52513,0.0268 3.13053,0.32108 1.63215,0.29432 3.0235,1.97999 z m -2.11378,2.24756 q -0.6154,-1.09702 -2.16728,-1.01675 -3.42485,0.18729 -4.49511,2.91647 -0.16054,0.66891 -0.10703,1.4181 0.0803,0.74918 0.69567,1.12377 1.6054,0.0803 3.18404,-0.40134 3.07701,-1.25757 2.88971,-4.04025 z"
         style="font-style:normal;font-variant:normal;font-weight:normal;font-stretch:normal;font-size:27.39877319px;font-family:KswGoryuNewN;-inkscape-font-specification:KswGoryuNewN;fill:#ff0000;stroke-width:1.00000001;stroke:#4a1111;stroke-opacity:1;stroke-miterlimit:4;stroke-dasharray:none"
         id="path1002" />
    </g>
    <g
       aria-label="10"
       style="font-style:normal;font-weight:normal;font-size:10.58333302px;line-height:1.25;font-family:sans-serif;letter-spacing:0px;word-spacing:0px;fill:#ff0000;fill-opacity:1;stroke:#4a1111;stroke-width:1;stroke-opacity:1;stroke-miterlimit:4;stroke-dasharray:none"
       id="text827-3-7-4-0-6-4-8-6"
       inkscape:export-filename="C:\projects\IkkiuchiV2\Assets\Sprites\Num.png"
       inkscape:export-xdpi="96"
       inkscape:export-ydpi="96">
      <path
         d="m 246.10536,274.95098 q 0.35278,1.98438 0.0882,3.68212 l -0.0661,5.11528 0.13229,8.31232 q -0.28663,1.03629 -1.36702,0.57327 -1.56545,-0.904 -1.71979,-2.77813 l 0.26459,-10.75972 q 0.0221,0.13229 0.15434,0.11024 -0.66146,0.30868 -1.89618,0.74966 l 0.28663,-1.14653 q 0.94809,-1.91823 1.87413,-3.9908 1.10243,-0.15434 2.24896,0.13229 z"
         style="font-style:normal;font-variant:normal;font-weight:normal;font-stretch:normal;font-size:22.57777786px;font-family:KswGoryuNewN;-inkscape-font-specification:KswGoryuNewN;fill:#ff0000;stroke-width:1;stroke:#4a1111;stroke-opacity:1;stroke-miterlimit:4;stroke-dasharray:none"
         id="path997" />
      <path
         d="m 260.5472,279.3607 q 1.41111,6.01927 -1.45521,11.13455 -1.16858,1.5434 -2.99861,1.76389 -2.02847,-0.0882 -3.54983,-1.5875 -2.80017,-5.26962 -1.05833,-10.82587 0.59531,-2.3592 2.02847,-3.61597 1.43316,-1.25677 3.70417,-1.21267 0.99219,0.17639 2.16076,1.43316 z m -2.68993,-1.32291 -1.12448,-0.61736 q -1.21267,0.11024 -2.22691,1.76388 -2.13872,4.74046 0.24253,9.94393 0.28664,0.33073 0.59532,0.68351 0.30868,0.33072 0.66146,0.26458 1.71979,-0.52917 2.18281,-3.57188 0.7717,-4.32152 -0.33073,-8.46666 z"
         style="font-style:normal;font-variant:normal;font-weight:normal;font-stretch:normal;font-size:22.57777786px;font-family:KswGoryuNewN;-inkscape-font-specification:KswGoryuNewN;fill:#ff0000;stroke-width:1;stroke:#4a1111;stroke-opacity:1;stroke-miterlimit:4;stroke-dasharray:none"
         id="path999" />
    </g>
  </g>
</svg>
